%FSLAX43Y43*%
%MOMM*%
G71*
G01*
G75*
G04 Layer_Color=8421504*
%ADD10C,0.175*%
%ADD11C,0.300*%
%ADD12C,0.175*%
%ADD13C,0.300*%
%ADD14C,0.180*%
%ADD15C,0.220*%
%ADD16C,0.200*%
%ADD17R,1.000X0.950*%
%ADD18C,0.400*%
%ADD19R,0.400X1.350*%
%ADD20R,1.000X2.250*%
%ADD21R,1.150X1.400*%
%ADD22R,0.300X0.850*%
%ADD23R,0.850X0.300*%
%ADD24R,5.200X5.200*%
%ADD25R,2.600X2.600*%
%ADD26R,0.230X0.480*%
%ADD27R,0.480X0.230*%
%ADD28R,1.050X0.650*%
%ADD29R,1.300X0.600*%
%ADD30R,1.200X1.200*%
%ADD31R,1.200X1.350*%
%ADD32R,0.800X0.650*%
%ADD33R,0.500X0.600*%
%ADD34R,0.950X1.000*%
%ADD35R,0.600X0.900*%
%ADD36R,0.900X0.600*%
%ADD37R,0.650X0.800*%
%ADD38C,0.150*%
%ADD39C,0.500*%
%ADD40R,0.900X0.300*%
%ADD41R,1.800X1.900*%
G04:AMPARAMS|DCode=42|XSize=1.05mm|YSize=1.25mm|CornerRadius=0.525mm|HoleSize=0mm|Usage=FLASHONLY|Rotation=180.000|XOffset=0mm|YOffset=0mm|HoleType=Round|Shape=RoundedRectangle|*
%AMROUNDEDRECTD42*
21,1,1.050,0.200,0,0,180.0*
21,1,0.000,1.250,0,0,180.0*
1,1,1.050,0.000,0.100*
1,1,1.050,0.000,0.100*
1,1,1.050,0.000,-0.100*
1,1,1.050,0.000,-0.100*
%
%ADD42ROUNDEDRECTD42*%
G04:AMPARAMS|DCode=43|XSize=2.1mm|YSize=1.9mm|CornerRadius=0.494mm|HoleSize=0mm|Usage=FLASHONLY|Rotation=180.000|XOffset=0mm|YOffset=0mm|HoleType=Round|Shape=RoundedRectangle|*
%AMROUNDEDRECTD43*
21,1,2.100,0.912,0,0,180.0*
21,1,1.112,1.900,0,0,180.0*
1,1,0.988,-0.556,0.456*
1,1,0.988,0.556,0.456*
1,1,0.988,0.556,-0.456*
1,1,0.988,-0.556,-0.456*
%
%ADD43ROUNDEDRECTD43*%
%ADD44R,1.700X1.700*%
%ADD45C,1.700*%
%ADD46R,1.700X1.700*%
%ADD47O,0.800X1.100*%
%ADD48O,1.100X0.800*%
%ADD49C,1.524*%
%ADD50C,3.600*%
%ADD51C,0.550*%
%ADD52C,0.800*%
%ADD53C,1.016*%
%ADD54C,0.100*%
%ADD55R,12.000X12.000*%
%ADD56O,1.250X1.450*%
%ADD57O,1.425X2.100*%
%ADD58C,1.600*%
%ADD59C,1.250*%
G04:AMPARAMS|DCode=60|XSize=2.174mm|YSize=2.174mm|CornerRadius=0mm|HoleSize=0mm|Usage=FLASHONLY|Rotation=0.000|XOffset=0mm|YOffset=0mm|HoleType=Round|Shape=Relief|Width=0.254mm|Gap=0.254mm|Entries=4|*
%AMTHD60*
7,0,0,2.174,1.666,0.254,45*
%
%ADD60THD60*%
G04:AMPARAMS|DCode=61|XSize=2.524mm|YSize=2.524mm|CornerRadius=0mm|HoleSize=0mm|Usage=FLASHONLY|Rotation=0.000|XOffset=0mm|YOffset=0mm|HoleType=Round|Shape=Relief|Width=0.254mm|Gap=0.254mm|Entries=4|*
%AMTHD61*
7,0,0,2.524,2.016,0.254,45*
%
%ADD61THD61*%
%ADD62C,3.300*%
%ADD63C,0.850*%
%ADD64C,1.000*%
%ADD65C,0.254*%
%ADD66C,0.250*%
%ADD67C,1.420*%
%ADD68C,0.100*%
%ADD69C,0.050*%
%ADD70C,0.400*%
%ADD71R,3.248X0.599*%
%ADD72R,2.100X2.100*%
%ADD73O,0.750X1.100*%
%ADD74C,0.600*%
%ADD75O,1.100X0.750*%
%ADD76R,1.300X1.400*%
G36*
X27400Y72434D02*
X25800D01*
X25752Y72438D01*
X25699Y72445D01*
X25646Y72460D01*
X25603Y72476D01*
X25561Y72496D01*
X25517Y72524D01*
X25479Y72553D01*
X25440Y72587D01*
X25411Y72623D01*
X25383Y72660D01*
X25359Y72701D01*
X25339Y72743D01*
X25323Y72785D01*
X25311Y72836D01*
X25304Y72881D01*
X25300Y72934D01*
Y73834D01*
X25304Y73889D01*
X25312Y73934D01*
X25324Y73984D01*
X25340Y74024D01*
X25353Y74057D01*
X25378Y74100D01*
X25404Y74137D01*
X25435Y74175D01*
X25480Y74216D01*
X25520Y74246D01*
X25566Y74275D01*
X25619Y74299D01*
X25706Y74325D01*
X25800Y74334D01*
X27400D01*
Y72434D01*
D02*
G37*
G36*
X34248Y74330D02*
X34301Y74323D01*
X34354Y74308D01*
X34397Y74292D01*
X34439Y74272D01*
X34483Y74244D01*
X34521Y74215D01*
X34560Y74181D01*
X34589Y74145D01*
X34617Y74108D01*
X34641Y74067D01*
X34661Y74025D01*
X34677Y73983D01*
X34689Y73932D01*
X34696Y73887D01*
X34700Y73834D01*
Y72934D01*
X34696Y72879D01*
X34688Y72834D01*
X34676Y72784D01*
X34660Y72744D01*
X34647Y72711D01*
X34622Y72668D01*
X34596Y72631D01*
X34565Y72593D01*
X34520Y72552D01*
X34480Y72522D01*
X34434Y72493D01*
X34381Y72469D01*
X34294Y72443D01*
X34200Y72434D01*
X32600D01*
Y74334D01*
X34200D01*
X34248Y74330D01*
D02*
G37*
D17*
X32586Y66120D02*
D03*
X30986D02*
D03*
D19*
X28700Y70709D02*
D03*
X29350D02*
D03*
X30000D02*
D03*
X30650D02*
D03*
X31300D02*
D03*
D20*
X20125Y2534D02*
D03*
Y8034D02*
D03*
X24125D02*
D03*
Y2534D02*
D03*
D21*
X20200Y44308D02*
D03*
Y46508D02*
D03*
X21800D02*
D03*
Y44308D02*
D03*
D22*
X32000Y50034D02*
D03*
X31500D02*
D03*
X30000D02*
D03*
X29500D02*
D03*
X29000D02*
D03*
X28500D02*
D03*
X27000Y43184D02*
D03*
X27500D02*
D03*
X28000D02*
D03*
X28500D02*
D03*
X29000D02*
D03*
X29500D02*
D03*
X30000D02*
D03*
X30500D02*
D03*
X31000D02*
D03*
X31500D02*
D03*
X32000D02*
D03*
X31000Y50034D02*
D03*
X30500D02*
D03*
X28000D02*
D03*
X27500D02*
D03*
X27000D02*
D03*
D23*
X26075Y49109D02*
D03*
Y48609D02*
D03*
Y48109D02*
D03*
Y47609D02*
D03*
Y47109D02*
D03*
Y46609D02*
D03*
Y46109D02*
D03*
Y45609D02*
D03*
Y45109D02*
D03*
Y44609D02*
D03*
Y44109D02*
D03*
X32925D02*
D03*
Y44609D02*
D03*
Y47109D02*
D03*
Y47609D02*
D03*
Y48109D02*
D03*
Y48609D02*
D03*
Y49109D02*
D03*
Y46609D02*
D03*
Y45609D02*
D03*
Y45109D02*
D03*
Y46109D02*
D03*
D24*
X29500Y46609D02*
D03*
D26*
X28750Y27519D02*
D03*
X29250D02*
D03*
X29750D02*
D03*
X30250D02*
D03*
X30750D02*
D03*
X31250D02*
D03*
Y23799D02*
D03*
X30750D02*
D03*
X30250D02*
D03*
X29750D02*
D03*
X29250D02*
D03*
X28750D02*
D03*
D27*
X31860Y26909D02*
D03*
Y26409D02*
D03*
Y25909D02*
D03*
Y25409D02*
D03*
Y24909D02*
D03*
Y24409D02*
D03*
X28140D02*
D03*
Y24909D02*
D03*
Y25409D02*
D03*
Y25909D02*
D03*
Y26409D02*
D03*
Y26909D02*
D03*
D28*
X30918Y64345D02*
D03*
Y62439D02*
D03*
X28468D02*
D03*
Y63392D02*
D03*
Y64345D02*
D03*
D29*
X24985Y38179D02*
D03*
Y40079D02*
D03*
X22885Y39129D02*
D03*
Y36579D02*
D03*
Y34679D02*
D03*
X24985Y35629D02*
D03*
D30*
X32800Y1784D02*
D03*
X30700D02*
D03*
X29275Y36759D02*
D03*
X27175D02*
D03*
D31*
X32450Y68509D02*
D03*
X34350D02*
D03*
D32*
X11600Y54159D02*
D03*
X12800D02*
D03*
X24416Y23325D02*
D03*
X25616D02*
D03*
X34350Y42209D02*
D03*
X35550D02*
D03*
X24050Y10309D02*
D03*
X22850D02*
D03*
X22250Y50984D02*
D03*
X23450D02*
D03*
X35558Y52159D02*
D03*
X36758D02*
D03*
X35558Y53466D02*
D03*
X36758D02*
D03*
X35558Y50016D02*
D03*
X36758D02*
D03*
X33851Y64357D02*
D03*
X32651D02*
D03*
D33*
X23475Y46909D02*
D03*
X23475Y45859D02*
D03*
X23475Y44784D02*
D03*
X23475Y43734D02*
D03*
D34*
X26747Y62761D02*
D03*
Y64361D02*
D03*
D35*
X26458Y68885D02*
D03*
Y67785D02*
D03*
X34225Y49584D02*
D03*
Y48484D02*
D03*
X34250Y44609D02*
D03*
Y43509D02*
D03*
X28950Y52209D02*
D03*
Y53309D02*
D03*
X24775Y47609D02*
D03*
Y48709D02*
D03*
D36*
X24450Y26550D02*
D03*
X25550D02*
D03*
X20300Y10309D02*
D03*
X21400D02*
D03*
X23400Y49809D02*
D03*
X22300D02*
D03*
X27500Y41884D02*
D03*
X26400D02*
D03*
X25566Y27861D02*
D03*
X24466D02*
D03*
X25566Y29111D02*
D03*
X24466D02*
D03*
X29952Y60802D02*
D03*
X31052D02*
D03*
D37*
X18875Y34334D02*
D03*
Y35534D02*
D03*
X29800Y38509D02*
D03*
Y39709D02*
D03*
X31300Y38509D02*
D03*
Y39709D02*
D03*
X19625Y41159D02*
D03*
Y39959D02*
D03*
X20875Y41909D02*
D03*
Y40709D02*
D03*
X31350Y53359D02*
D03*
Y52159D02*
D03*
X30200Y53359D02*
D03*
Y52159D02*
D03*
X27025Y6209D02*
D03*
Y7409D02*
D03*
X26625Y40034D02*
D03*
Y38834D02*
D03*
X21375Y36384D02*
D03*
Y37584D02*
D03*
X34417Y2641D02*
D03*
Y1441D02*
D03*
X25315Y67735D02*
D03*
Y68935D02*
D03*
D42*
X32425Y70384D02*
D03*
X27575D02*
D03*
D43*
X33650Y73384D02*
D03*
X26350D02*
D03*
D72*
X8510Y57509D02*
D03*
X11050D02*
D03*
X13590D02*
D03*
X34235Y57509D02*
D03*
X36775D02*
D03*
X39315D02*
D03*
D73*
X45720Y56524D02*
D03*
Y57794D02*
D03*
X46990Y56524D02*
D03*
Y57794D02*
D03*
X48260Y56524D02*
D03*
Y57794D02*
D03*
X49530Y56524D02*
D03*
Y57794D02*
D03*
X50800Y56524D02*
D03*
Y57794D02*
D03*
D74*
X30000Y25659D02*
D03*
X30650Y26309D02*
D03*
X29350D02*
D03*
X30650Y25009D02*
D03*
X29350D02*
D03*
D75*
X38635Y2919D02*
D03*
X37365D02*
D03*
X38635Y4189D02*
D03*
X37365D02*
D03*
X38635Y5459D02*
D03*
X37365D02*
D03*
X38635Y6729D02*
D03*
X37365D02*
D03*
X38635Y7999D02*
D03*
X37365D02*
D03*
D76*
X31149Y73384D02*
D03*
X28851D02*
D03*
M02*
