%FSLAX43Y43*%
%MOMM*%
G71*
G01*
G75*
G04 Layer_Color=8388736*
%ADD10C,0.175*%
%ADD11C,0.300*%
%ADD12C,0.175*%
%ADD13C,0.300*%
%ADD14C,0.180*%
%ADD15C,0.220*%
%ADD16C,0.200*%
%ADD17R,1.000X0.950*%
%ADD18C,0.400*%
%ADD19R,0.400X1.350*%
%ADD20R,1.000X2.250*%
%ADD21R,1.150X1.400*%
%ADD22R,0.300X0.850*%
%ADD23R,0.850X0.300*%
%ADD24R,5.200X5.200*%
%ADD25R,2.600X2.600*%
%ADD26R,0.230X0.480*%
%ADD27R,0.480X0.230*%
%ADD28R,1.050X0.650*%
%ADD29R,1.300X0.600*%
%ADD30R,1.200X1.200*%
%ADD31R,1.200X1.350*%
%ADD32R,0.800X0.650*%
%ADD33R,0.500X0.600*%
%ADD34R,0.950X1.000*%
%ADD35R,0.600X0.900*%
%ADD36R,0.900X0.600*%
%ADD37R,0.650X0.800*%
%ADD38C,0.150*%
%ADD39C,0.500*%
%ADD40R,0.900X0.300*%
%ADD41R,1.800X1.900*%
G04:AMPARAMS|DCode=42|XSize=1.05mm|YSize=1.25mm|CornerRadius=0.525mm|HoleSize=0mm|Usage=FLASHONLY|Rotation=180.000|XOffset=0mm|YOffset=0mm|HoleType=Round|Shape=RoundedRectangle|*
%AMROUNDEDRECTD42*
21,1,1.050,0.200,0,0,180.0*
21,1,0.000,1.250,0,0,180.0*
1,1,1.050,0.000,0.100*
1,1,1.050,0.000,0.100*
1,1,1.050,0.000,-0.100*
1,1,1.050,0.000,-0.100*
%
%ADD42ROUNDEDRECTD42*%
G04:AMPARAMS|DCode=43|XSize=2.1mm|YSize=1.9mm|CornerRadius=0.494mm|HoleSize=0mm|Usage=FLASHONLY|Rotation=180.000|XOffset=0mm|YOffset=0mm|HoleType=Round|Shape=RoundedRectangle|*
%AMROUNDEDRECTD43*
21,1,2.100,0.912,0,0,180.0*
21,1,1.112,1.900,0,0,180.0*
1,1,0.988,-0.556,0.456*
1,1,0.988,0.556,0.456*
1,1,0.988,0.556,-0.456*
1,1,0.988,-0.556,-0.456*
%
%ADD43ROUNDEDRECTD43*%
%ADD44R,1.700X1.700*%
%ADD45C,1.700*%
%ADD46R,1.700X1.700*%
%ADD47O,0.800X1.100*%
%ADD48O,1.100X0.800*%
%ADD49C,1.524*%
%ADD50C,3.600*%
%ADD51C,0.550*%
%ADD52C,0.800*%
%ADD53C,1.016*%
%ADD54C,0.100*%
%ADD55R,12.000X12.000*%
%ADD56O,1.250X1.450*%
%ADD57O,1.425X2.100*%
%ADD58C,1.600*%
%ADD59C,1.250*%
G04:AMPARAMS|DCode=60|XSize=2.174mm|YSize=2.174mm|CornerRadius=0mm|HoleSize=0mm|Usage=FLASHONLY|Rotation=0.000|XOffset=0mm|YOffset=0mm|HoleType=Round|Shape=Relief|Width=0.254mm|Gap=0.254mm|Entries=4|*
%AMTHD60*
7,0,0,2.174,1.666,0.254,45*
%
%ADD60THD60*%
G04:AMPARAMS|DCode=61|XSize=2.524mm|YSize=2.524mm|CornerRadius=0mm|HoleSize=0mm|Usage=FLASHONLY|Rotation=0.000|XOffset=0mm|YOffset=0mm|HoleType=Round|Shape=Relief|Width=0.254mm|Gap=0.254mm|Entries=4|*
%AMTHD61*
7,0,0,2.524,2.016,0.254,45*
%
%ADD61THD61*%
%ADD62C,3.300*%
%ADD63C,0.850*%
%ADD64C,1.000*%
%ADD65C,0.254*%
%ADD66C,0.250*%
%ADD67C,1.420*%
%ADD68C,0.100*%
%ADD69C,0.050*%
%ADD70C,0.400*%
%ADD71R,3.248X0.599*%
%ADD72R,2.100X2.100*%
%ADD73O,0.750X1.100*%
%ADD74C,0.600*%
%ADD75O,1.100X0.750*%
%ADD76R,1.300X1.400*%
%ADD77R,0.900X0.510*%
%ADD78R,1.100X1.050*%
%ADD79R,0.500X1.450*%
%ADD80R,1.100X2.350*%
%ADD81R,1.250X1.500*%
%ADD82R,0.400X0.950*%
%ADD83R,0.950X0.400*%
%ADD84R,5.300X5.300*%
%ADD85R,2.700X2.700*%
%ADD86R,0.330X0.580*%
%ADD87R,0.580X0.330*%
%ADD88R,1.150X0.750*%
%ADD89R,1.400X0.700*%
%ADD90R,1.300X1.300*%
%ADD91R,1.300X1.450*%
%ADD92R,0.900X0.750*%
%ADD93R,0.600X0.700*%
%ADD94R,1.050X1.100*%
%ADD95R,0.700X1.000*%
%ADD96R,1.000X0.700*%
%ADD97R,0.750X0.900*%
%ADD98R,1.900X2.000*%
G04:AMPARAMS|DCode=99|XSize=1.15mm|YSize=1.35mm|CornerRadius=0.575mm|HoleSize=0mm|Usage=FLASHONLY|Rotation=180.000|XOffset=0mm|YOffset=0mm|HoleType=Round|Shape=RoundedRectangle|*
%AMROUNDEDRECTD99*
21,1,1.150,0.200,0,0,180.0*
21,1,0.000,1.350,0,0,180.0*
1,1,1.150,0.000,0.100*
1,1,1.150,0.000,0.100*
1,1,1.150,0.000,-0.100*
1,1,1.150,0.000,-0.100*
%
%ADD99ROUNDEDRECTD99*%
G04:AMPARAMS|DCode=100|XSize=2.2mm|YSize=2mm|CornerRadius=0.544mm|HoleSize=0mm|Usage=FLASHONLY|Rotation=180.000|XOffset=0mm|YOffset=0mm|HoleType=Round|Shape=RoundedRectangle|*
%AMROUNDEDRECTD100*
21,1,2.200,0.912,0,0,180.0*
21,1,1.112,2.000,0,0,180.0*
1,1,1.088,-0.556,0.456*
1,1,1.088,0.556,0.456*
1,1,1.088,0.556,-0.456*
1,1,1.088,-0.556,-0.456*
%
%ADD100ROUNDEDRECTD100*%
%ADD101R,1.800X1.800*%
%ADD102C,1.800*%
%ADD103R,1.800X1.800*%
%ADD104O,0.900X1.200*%
%ADD105O,1.200X0.900*%
%ADD106C,1.624*%
%ADD107C,3.700*%
%ADD108C,0.650*%
G36*
X32655Y42064D02*
X32657Y42064D01*
X32826Y42042D01*
X32828Y42041D01*
X32829Y42041D01*
X32833Y42040D01*
X32836Y42039D01*
X32837Y42039D01*
X32839Y42038D01*
X32997Y41973D01*
X32998Y41972D01*
X33000Y41971D01*
X33003Y41970D01*
X33006Y41968D01*
X33007Y41967D01*
X33008Y41966D01*
X33144Y41862D01*
X33145Y41861D01*
X33147Y41860D01*
X33149Y41858D01*
X33151Y41855D01*
X33152Y41854D01*
X33153Y41853D01*
X33258Y41717D01*
X33258Y41716D01*
X33260Y41714D01*
X33261Y41711D01*
X33263Y41709D01*
X33263Y41707D01*
X33264Y41706D01*
X33330Y41548D01*
X33330Y41546D01*
X33331Y41544D01*
X33332Y41541D01*
X33333Y41538D01*
X33333Y41536D01*
X33333Y41535D01*
X33355Y41365D01*
X33356Y41362D01*
X33356Y41359D01*
X33356Y41357D01*
X33356Y41355D01*
X33355Y41352D01*
X33355Y41349D01*
X33354Y41347D01*
X33354Y41346D01*
X33353Y41343D01*
X33352Y41339D01*
X33351Y41338D01*
X33351Y41336D01*
X33349Y41334D01*
X33347Y41331D01*
X33346Y41329D01*
X33345Y41328D01*
X33343Y41326D01*
X33341Y41323D01*
X33340Y41322D01*
X33339Y41321D01*
X33336Y41319D01*
X33334Y41317D01*
X33332Y41316D01*
X33331Y41315D01*
X33328Y41314D01*
X33325Y41312D01*
X33323Y41312D01*
X33322Y41311D01*
X33319Y41310D01*
X33315Y41309D01*
X33314Y41309D01*
X33312Y41309D01*
X33309Y41309D01*
X33306Y41308D01*
X31994D01*
X31991Y41309D01*
X31988Y41309D01*
X31986Y41309D01*
X31985Y41309D01*
X31981Y41310D01*
X31978Y41311D01*
X31977Y41312D01*
X31975Y41312D01*
X31972Y41314D01*
X31969Y41315D01*
X31968Y41316D01*
X31966Y41317D01*
X31964Y41319D01*
X31961Y41321D01*
X31960Y41322D01*
X31959Y41323D01*
X31957Y41326D01*
X31955Y41328D01*
X31954Y41329D01*
X31953Y41331D01*
X31951Y41334D01*
X31949Y41336D01*
X31949Y41338D01*
X31948Y41339D01*
X31947Y41343D01*
X31946Y41346D01*
X31946Y41347D01*
X31945Y41349D01*
X31945Y41352D01*
X31944Y41355D01*
X31944Y41357D01*
X31944Y41359D01*
X31944Y41362D01*
X31945Y41365D01*
X31967Y41535D01*
X31967Y41536D01*
X31967Y41538D01*
X31968Y41541D01*
X31969Y41544D01*
X31970Y41546D01*
X31970Y41548D01*
X32036Y41706D01*
X32037Y41707D01*
X32037Y41709D01*
X32039Y41711D01*
X32040Y41714D01*
X32041Y41716D01*
X32042Y41717D01*
X32147Y41853D01*
X32148Y41854D01*
X32149Y41855D01*
X32151Y41858D01*
X32153Y41860D01*
X32155Y41861D01*
X32156Y41862D01*
X32292Y41966D01*
X32293Y41967D01*
X32294Y41968D01*
X32297Y41970D01*
X32300Y41971D01*
X32302Y41972D01*
X32303Y41973D01*
X32461Y42038D01*
X32463Y42039D01*
X32464Y42039D01*
X32467Y42040D01*
X32471Y42041D01*
X32472Y42041D01*
X32474Y42042D01*
X32643Y42064D01*
X32645Y42064D01*
X32647Y42064D01*
X32650Y42064D01*
X32653Y42064D01*
X32655Y42064D01*
D02*
G37*
G36*
X33309Y41009D02*
X33312Y41008D01*
X33314Y41008D01*
X33315Y41008D01*
X33319Y41007D01*
X33322Y41006D01*
X33323Y41006D01*
X33325Y41005D01*
X33328Y41004D01*
X33331Y41002D01*
X33332Y41001D01*
X33334Y41000D01*
X33336Y40998D01*
X33339Y40996D01*
X33340Y40995D01*
X33341Y40994D01*
X33343Y40992D01*
X33345Y40989D01*
X33346Y40988D01*
X33347Y40987D01*
X33349Y40984D01*
X33351Y40981D01*
X33351Y40979D01*
X33352Y40978D01*
X33353Y40975D01*
X33354Y40972D01*
X33354Y40970D01*
X33355Y40968D01*
X33355Y40965D01*
X33356Y40962D01*
X33356Y40960D01*
X33356Y40959D01*
X33356Y40955D01*
X33355Y40952D01*
X33333Y40782D01*
X33333Y40781D01*
X33333Y40779D01*
X33332Y40776D01*
X33331Y40773D01*
X33330Y40771D01*
X33330Y40770D01*
X33264Y40612D01*
X33263Y40610D01*
X33263Y40609D01*
X33261Y40606D01*
X33260Y40603D01*
X33258Y40602D01*
X33258Y40600D01*
X33153Y40464D01*
X33152Y40463D01*
X33151Y40462D01*
X33149Y40460D01*
X33147Y40457D01*
X33145Y40456D01*
X33144Y40455D01*
X33008Y40351D01*
X33007Y40350D01*
X33006Y40349D01*
X33003Y40348D01*
X33000Y40346D01*
X32998Y40345D01*
X32997Y40344D01*
X32839Y40279D01*
X32837Y40278D01*
X32836Y40278D01*
X32833Y40277D01*
X32829Y40276D01*
X32828Y40276D01*
X32826Y40276D01*
X32657Y40253D01*
X32655Y40253D01*
X32653Y40253D01*
X32650Y40253D01*
X32647Y40253D01*
X32645Y40253D01*
X32643Y40253D01*
X32474Y40276D01*
X32472Y40276D01*
X32471Y40276D01*
X32467Y40277D01*
X32464Y40278D01*
X32463Y40278D01*
X32461Y40279D01*
X32303Y40344D01*
X32302Y40345D01*
X32300Y40346D01*
X32297Y40348D01*
X32294Y40349D01*
X32293Y40350D01*
X32292Y40351D01*
X32156Y40455D01*
X32155Y40456D01*
X32153Y40457D01*
X32151Y40460D01*
X32149Y40462D01*
X32148Y40463D01*
X32147Y40464D01*
X32042Y40600D01*
X32042Y40602D01*
X32040Y40603D01*
X32039Y40606D01*
X32037Y40609D01*
X32037Y40610D01*
X32036Y40612D01*
X31970Y40770D01*
X31970Y40771D01*
X31969Y40773D01*
X31968Y40776D01*
X31967Y40779D01*
X31967Y40781D01*
X31967Y40782D01*
X31945Y40952D01*
X31944Y40955D01*
X31944Y40959D01*
X31944Y40960D01*
X31944Y40962D01*
X31945Y40965D01*
X31945Y40968D01*
X31946Y40970D01*
X31946Y40972D01*
X31947Y40975D01*
X31948Y40978D01*
X31949Y40979D01*
X31949Y40981D01*
X31951Y40984D01*
X31953Y40987D01*
X31954Y40988D01*
X31955Y40989D01*
X31957Y40992D01*
X31959Y40994D01*
X31960Y40995D01*
X31961Y40996D01*
X31964Y40998D01*
X31966Y41000D01*
X31968Y41001D01*
X31969Y41002D01*
X31972Y41004D01*
X31975Y41005D01*
X31977Y41006D01*
X31978Y41006D01*
X31981Y41007D01*
X31985Y41008D01*
X31986Y41008D01*
X31988Y41008D01*
X31991Y41009D01*
X31994Y41009D01*
X33306D01*
X33309Y41009D01*
D02*
G37*
G36*
X27410Y74383D02*
X27419Y74380D01*
X27428Y74375D01*
X27436Y74369D01*
X27442Y74362D01*
X27446Y74353D01*
X27449Y74343D01*
X27450Y74334D01*
Y72434D01*
X27449Y72424D01*
X27446Y72414D01*
X27442Y72406D01*
X27436Y72398D01*
X27428Y72392D01*
X27419Y72387D01*
X27410Y72384D01*
X27400Y72383D01*
X25800D01*
X25798Y72384D01*
X25796Y72384D01*
X25748Y72388D01*
X25747Y72388D01*
X25745Y72388D01*
X25692Y72395D01*
X25689Y72396D01*
X25685Y72396D01*
X25632Y72411D01*
X25630Y72412D01*
X25628Y72413D01*
X25585Y72429D01*
X25583Y72430D01*
X25581Y72430D01*
X25539Y72450D01*
X25537Y72452D01*
X25534Y72453D01*
X25490Y72481D01*
X25488Y72483D01*
X25487Y72484D01*
X25449Y72513D01*
X25447Y72514D01*
X25446Y72515D01*
X25407Y72549D01*
X25404Y72552D01*
X25401Y72555D01*
X25372Y72591D01*
X25371Y72592D01*
X25371Y72592D01*
X25343Y72629D01*
X25341Y72632D01*
X25340Y72634D01*
X25316Y72675D01*
X25315Y72677D01*
X25314Y72679D01*
X25294Y72721D01*
X25293Y72723D01*
X25292Y72725D01*
X25276Y72767D01*
X25275Y72770D01*
X25274Y72773D01*
X25262Y72824D01*
X25262Y72826D01*
X25261Y72828D01*
X25254Y72873D01*
X25254Y72875D01*
X25254Y72877D01*
X25250Y72930D01*
X25250Y72932D01*
X25250Y72934D01*
Y73834D01*
X25250Y73835D01*
X25250Y73837D01*
X25254Y73892D01*
X25254Y73895D01*
X25255Y73897D01*
X25263Y73942D01*
X25263Y73944D01*
X25263Y73945D01*
X25275Y73995D01*
X25276Y73999D01*
X25277Y74002D01*
X25293Y74042D01*
X25306Y74075D01*
X25308Y74078D01*
X25310Y74082D01*
X25335Y74125D01*
X25336Y74127D01*
X25337Y74129D01*
X25363Y74166D01*
X25364Y74167D01*
X25365Y74168D01*
X25396Y74206D01*
X25399Y74209D01*
X25401Y74212D01*
X25446Y74253D01*
X25448Y74254D01*
X25450Y74256D01*
X25490Y74286D01*
X25492Y74287D01*
X25493Y74288D01*
X25539Y74317D01*
X25542Y74319D01*
X25545Y74320D01*
X25598Y74344D01*
X25601Y74345D01*
X25605Y74347D01*
X25692Y74373D01*
X25697Y74374D01*
X25701Y74375D01*
X25701Y74375D01*
X25701Y74375D01*
X25701D01*
X25795Y74384D01*
X25798Y74384D01*
X25800Y74384D01*
X27400D01*
X27410Y74383D01*
D02*
G37*
G36*
X34202Y74384D02*
X34204Y74384D01*
X34252Y74380D01*
X34253Y74379D01*
X34255Y74379D01*
X34308Y74372D01*
X34311Y74372D01*
X34315Y74371D01*
X34368Y74356D01*
X34370Y74355D01*
X34372Y74355D01*
X34415Y74339D01*
X34417Y74338D01*
X34419Y74337D01*
X34461Y74317D01*
X34463Y74315D01*
X34466Y74314D01*
X34510Y74286D01*
X34512Y74285D01*
X34513Y74284D01*
X34551Y74255D01*
X34553Y74253D01*
X34554Y74253D01*
X34593Y74219D01*
X34596Y74215D01*
X34599Y74212D01*
X34628Y74176D01*
X34629Y74176D01*
X34629Y74175D01*
X34657Y74138D01*
X34659Y74135D01*
X34660Y74133D01*
X34684Y74092D01*
X34685Y74090D01*
X34686Y74088D01*
X34706Y74046D01*
X34707Y74044D01*
X34708Y74043D01*
X34724Y74001D01*
X34725Y73997D01*
X34726Y73994D01*
X34738Y73943D01*
X34738Y73941D01*
X34739Y73939D01*
X34746Y73894D01*
X34746Y73892D01*
X34746Y73890D01*
X34750Y73837D01*
X34750Y73836D01*
X34750Y73834D01*
Y72934D01*
X34750Y72932D01*
X34750Y72930D01*
X34746Y72875D01*
X34746Y72872D01*
X34745Y72870D01*
X34737Y72825D01*
X34737Y72823D01*
X34737Y72822D01*
X34725Y72772D01*
X34724Y72768D01*
X34723Y72765D01*
X34707Y72725D01*
X34694Y72692D01*
X34692Y72689D01*
X34690Y72685D01*
X34665Y72642D01*
X34664Y72641D01*
X34663Y72639D01*
X34637Y72602D01*
X34636Y72600D01*
X34635Y72599D01*
X34604Y72561D01*
X34601Y72558D01*
X34599Y72555D01*
X34554Y72515D01*
X34552Y72513D01*
X34550Y72511D01*
X34510Y72481D01*
X34508Y72480D01*
X34507Y72479D01*
X34461Y72450D01*
X34458Y72449D01*
X34455Y72447D01*
X34402Y72423D01*
X34399Y72422D01*
X34395Y72421D01*
X34308Y72395D01*
X34303Y72393D01*
X34299Y72393D01*
X34299Y72393D01*
X34299Y72393D01*
X34299D01*
X34205Y72384D01*
X34202Y72384D01*
X34200Y72383D01*
X32600D01*
X32590Y72384D01*
X32581Y72387D01*
X32572Y72392D01*
X32564Y72398D01*
X32558Y72406D01*
X32554Y72414D01*
X32551Y72424D01*
X32550Y72434D01*
Y74334D01*
X32551Y74343D01*
X32554Y74353D01*
X32558Y74362D01*
X32564Y74369D01*
X32572Y74375D01*
X32581Y74380D01*
X32590Y74383D01*
X32600Y74384D01*
X34200D01*
X34202Y74384D01*
D02*
G37*
D77*
X21600Y48414D02*
D03*
D78*
X22450Y48409D02*
D03*
X20750D02*
D03*
X32586Y66120D02*
D03*
X30986D02*
D03*
D79*
X28700Y70709D02*
D03*
X29350D02*
D03*
X30000D02*
D03*
X30650D02*
D03*
X31300D02*
D03*
D80*
X20125Y2534D02*
D03*
Y8034D02*
D03*
X24125D02*
D03*
Y2534D02*
D03*
D81*
X20200Y44308D02*
D03*
Y46508D02*
D03*
X21800D02*
D03*
Y44308D02*
D03*
D82*
X32000Y50034D02*
D03*
X31500D02*
D03*
X30000D02*
D03*
X29500D02*
D03*
X29000D02*
D03*
X28500D02*
D03*
X27000Y43184D02*
D03*
X27500D02*
D03*
X28000D02*
D03*
X28500D02*
D03*
X29000D02*
D03*
X29500D02*
D03*
X30000D02*
D03*
X30500D02*
D03*
X31000D02*
D03*
X31500D02*
D03*
X32000D02*
D03*
X31000Y50034D02*
D03*
X30500D02*
D03*
X28000D02*
D03*
X27500D02*
D03*
X27000D02*
D03*
D83*
X26075Y49109D02*
D03*
Y48609D02*
D03*
Y48109D02*
D03*
Y47609D02*
D03*
Y47109D02*
D03*
Y46609D02*
D03*
Y46109D02*
D03*
Y45609D02*
D03*
Y45109D02*
D03*
Y44609D02*
D03*
Y44109D02*
D03*
X32925D02*
D03*
Y44609D02*
D03*
Y47109D02*
D03*
Y47609D02*
D03*
Y48109D02*
D03*
Y48609D02*
D03*
Y49109D02*
D03*
Y46609D02*
D03*
Y45609D02*
D03*
Y45109D02*
D03*
Y46109D02*
D03*
D84*
X29500Y46609D02*
D03*
D85*
X30000Y25659D02*
D03*
D86*
X28750Y27519D02*
D03*
X29250D02*
D03*
X29750D02*
D03*
X30250D02*
D03*
X30750D02*
D03*
X31250D02*
D03*
Y23799D02*
D03*
X30750D02*
D03*
X30250D02*
D03*
X29750D02*
D03*
X29250D02*
D03*
X28750D02*
D03*
D87*
X31860Y26909D02*
D03*
Y26409D02*
D03*
Y25909D02*
D03*
Y25409D02*
D03*
Y24909D02*
D03*
Y24409D02*
D03*
X28140D02*
D03*
Y24909D02*
D03*
Y25409D02*
D03*
Y25909D02*
D03*
Y26409D02*
D03*
Y26909D02*
D03*
D88*
X30918Y64345D02*
D03*
Y62439D02*
D03*
X28468D02*
D03*
Y63392D02*
D03*
Y64345D02*
D03*
D89*
X24985Y38179D02*
D03*
Y40079D02*
D03*
X22885Y39129D02*
D03*
Y36579D02*
D03*
Y34679D02*
D03*
X24985Y35629D02*
D03*
D90*
X32800Y1784D02*
D03*
X30700D02*
D03*
X29275Y36759D02*
D03*
X27175D02*
D03*
D91*
X32450Y68509D02*
D03*
X34350D02*
D03*
D92*
X11600Y54159D02*
D03*
X12800D02*
D03*
X24416Y23325D02*
D03*
X25616D02*
D03*
X34350Y42209D02*
D03*
X35550D02*
D03*
X24050Y10309D02*
D03*
X22850D02*
D03*
X22250Y50984D02*
D03*
X23450D02*
D03*
X35558Y52159D02*
D03*
X36758D02*
D03*
X35558Y53466D02*
D03*
X36758D02*
D03*
X35558Y50016D02*
D03*
X36758D02*
D03*
X33851Y64357D02*
D03*
X32651D02*
D03*
D93*
X23475Y46909D02*
D03*
X23475Y45859D02*
D03*
X23475Y44784D02*
D03*
X23475Y43734D02*
D03*
D94*
X26747Y62761D02*
D03*
Y64361D02*
D03*
D95*
X26458Y68885D02*
D03*
Y67785D02*
D03*
X34225Y49584D02*
D03*
Y48484D02*
D03*
X34250Y44609D02*
D03*
Y43509D02*
D03*
X28950Y52209D02*
D03*
Y53309D02*
D03*
X24775Y47609D02*
D03*
Y48709D02*
D03*
D96*
X24450Y26550D02*
D03*
X25550D02*
D03*
X20300Y10309D02*
D03*
X21400D02*
D03*
X23400Y49809D02*
D03*
X22300D02*
D03*
X27500Y41884D02*
D03*
X26400D02*
D03*
X25566Y27861D02*
D03*
X24466D02*
D03*
X25566Y29111D02*
D03*
X24466D02*
D03*
X29952Y60802D02*
D03*
X31052D02*
D03*
D97*
X18875Y34334D02*
D03*
Y35534D02*
D03*
X29800Y38509D02*
D03*
Y39709D02*
D03*
X31300Y38509D02*
D03*
Y39709D02*
D03*
X19625Y41159D02*
D03*
Y39959D02*
D03*
X20875Y41909D02*
D03*
Y40709D02*
D03*
X31350Y53359D02*
D03*
Y52159D02*
D03*
X30200Y53359D02*
D03*
Y52159D02*
D03*
X27025Y6209D02*
D03*
Y7409D02*
D03*
X26625Y40034D02*
D03*
Y38834D02*
D03*
X21375Y36384D02*
D03*
Y37584D02*
D03*
X34417Y2641D02*
D03*
Y1441D02*
D03*
X25315Y67735D02*
D03*
Y68935D02*
D03*
D98*
X31149Y73384D02*
D03*
X28851D02*
D03*
D99*
X27575Y70384D02*
D03*
X32425D02*
D03*
D100*
X33650Y73384D02*
D03*
X26350D02*
D03*
D101*
X6350Y20329D02*
D03*
Y17789D02*
D03*
Y12709D02*
D03*
Y15249D02*
D03*
Y7629D02*
D03*
Y10169D02*
D03*
X54610Y7629D02*
D03*
Y10169D02*
D03*
Y15249D02*
D03*
Y12709D02*
D03*
Y22869D02*
D03*
Y25409D02*
D03*
Y20329D02*
D03*
Y17789D02*
D03*
Y39633D02*
D03*
Y42173D02*
D03*
Y47253D02*
D03*
Y44713D02*
D03*
Y34553D02*
D03*
Y37093D02*
D03*
Y32013D02*
D03*
Y29473D02*
D03*
Y49793D02*
D03*
Y52333D02*
D03*
X16510Y48269D02*
D03*
X6350Y43189D02*
D03*
Y40649D02*
D03*
Y35569D02*
D03*
Y38109D02*
D03*
Y27949D02*
D03*
Y25409D02*
D03*
Y30489D02*
D03*
Y33029D02*
D03*
D102*
X8510Y57509D02*
D03*
X11050D02*
D03*
X16510Y50809D02*
D03*
X34240Y4949D02*
D03*
X31700D02*
D03*
X29160D02*
D03*
X31700Y7489D02*
D03*
X29160D02*
D03*
X34235Y57509D02*
D03*
X36775D02*
D03*
D103*
X13590Y57509D02*
D03*
X34240Y7489D02*
D03*
X39315Y57509D02*
D03*
D104*
X50800Y56524D02*
D03*
Y57794D02*
D03*
X45720D02*
D03*
X46990D02*
D03*
X48260D02*
D03*
X49530D02*
D03*
Y56524D02*
D03*
X48260D02*
D03*
X46990D02*
D03*
X45720D02*
D03*
D105*
X37365Y7999D02*
D03*
Y6729D02*
D03*
Y5459D02*
D03*
Y4189D02*
D03*
X38635D02*
D03*
Y5459D02*
D03*
Y6729D02*
D03*
Y7999D02*
D03*
Y2919D02*
D03*
X37365D02*
D03*
D106*
X31500Y36559D02*
D03*
X39370Y30489D02*
D03*
Y33029D02*
D03*
X16510Y2549D02*
D03*
Y5089D02*
D03*
X13970Y2549D02*
D03*
Y5089D02*
D03*
X8890Y2549D02*
D03*
X11430Y5089D02*
D03*
Y2549D02*
D03*
X8890Y5089D02*
D03*
X44450D02*
D03*
X46990D02*
D03*
X49530D02*
D03*
X52070D02*
D03*
Y2549D02*
D03*
X49530D02*
D03*
X46990D02*
D03*
X44450D02*
D03*
X41910D02*
D03*
Y5089D02*
D03*
Y50809D02*
D03*
Y40649D02*
D03*
Y43189D02*
D03*
Y45729D02*
D03*
Y48269D02*
D03*
Y30489D02*
D03*
Y33029D02*
D03*
Y35569D02*
D03*
Y38109D02*
D03*
Y20329D02*
D03*
Y22869D02*
D03*
Y25409D02*
D03*
Y27949D02*
D03*
Y17789D02*
D03*
Y15249D02*
D03*
Y12709D02*
D03*
Y10169D02*
D03*
Y7629D02*
D03*
X44450D02*
D03*
X46990D02*
D03*
X49530D02*
D03*
X52070D02*
D03*
Y10169D02*
D03*
X49530D02*
D03*
X46990D02*
D03*
X44450D02*
D03*
X52070Y12709D02*
D03*
X49530D02*
D03*
X46990D02*
D03*
X44450D02*
D03*
X52070Y15249D02*
D03*
X49530D02*
D03*
X46990D02*
D03*
X44450D02*
D03*
X52070Y17789D02*
D03*
X49530D02*
D03*
X46990D02*
D03*
X44450D02*
D03*
Y27949D02*
D03*
X46990D02*
D03*
X49530D02*
D03*
X52070D02*
D03*
X44450Y25409D02*
D03*
X46990D02*
D03*
X49530D02*
D03*
X52070D02*
D03*
X44450Y22869D02*
D03*
X46990D02*
D03*
X49530D02*
D03*
X52070D02*
D03*
X44450Y20329D02*
D03*
X46990D02*
D03*
X49530D02*
D03*
X52070D02*
D03*
X44450Y38109D02*
D03*
X46990D02*
D03*
X49530D02*
D03*
X52070D02*
D03*
X44450Y35569D02*
D03*
X46990D02*
D03*
X49530D02*
D03*
X52070D02*
D03*
X44450Y33029D02*
D03*
X46990D02*
D03*
X49530D02*
D03*
X52070D02*
D03*
X44450Y30489D02*
D03*
X46990D02*
D03*
X49530D02*
D03*
X52070D02*
D03*
X44450Y48269D02*
D03*
X46990D02*
D03*
X49530D02*
D03*
X52070D02*
D03*
X44450Y45729D02*
D03*
X46990D02*
D03*
X49530D02*
D03*
X52070D02*
D03*
X44450Y43189D02*
D03*
X46990D02*
D03*
X49530D02*
D03*
X52070D02*
D03*
X44450Y40649D02*
D03*
X46990D02*
D03*
X49530D02*
D03*
X52070D02*
D03*
Y50809D02*
D03*
X49530D02*
D03*
X46990D02*
D03*
X44450D02*
D03*
X3810Y7629D02*
D03*
Y10169D02*
D03*
Y12709D02*
D03*
Y15249D02*
D03*
Y17789D02*
D03*
Y27949D02*
D03*
Y25409D02*
D03*
Y22869D02*
D03*
Y20329D02*
D03*
Y38109D02*
D03*
Y35569D02*
D03*
Y33029D02*
D03*
Y30489D02*
D03*
Y48269D02*
D03*
Y45729D02*
D03*
Y43189D02*
D03*
Y40649D02*
D03*
Y50809D02*
D03*
X6350D02*
D03*
Y48269D02*
D03*
X8890Y10169D02*
D03*
Y15249D02*
D03*
Y17789D02*
D03*
Y27949D02*
D03*
Y25409D02*
D03*
Y22869D02*
D03*
Y20329D02*
D03*
Y38109D02*
D03*
Y35569D02*
D03*
Y33029D02*
D03*
Y30489D02*
D03*
Y48269D02*
D03*
Y45729D02*
D03*
Y43189D02*
D03*
Y40649D02*
D03*
Y50809D02*
D03*
X11430Y7629D02*
D03*
Y10169D02*
D03*
Y12709D02*
D03*
Y15249D02*
D03*
Y17789D02*
D03*
Y27949D02*
D03*
Y25409D02*
D03*
Y22869D02*
D03*
Y20329D02*
D03*
Y38109D02*
D03*
Y35569D02*
D03*
Y33029D02*
D03*
Y30489D02*
D03*
Y48269D02*
D03*
Y45729D02*
D03*
Y43189D02*
D03*
Y40649D02*
D03*
Y50809D02*
D03*
X57150Y7629D02*
D03*
Y10169D02*
D03*
Y12709D02*
D03*
Y15249D02*
D03*
Y17789D02*
D03*
Y27949D02*
D03*
Y25409D02*
D03*
Y22869D02*
D03*
Y20329D02*
D03*
Y38109D02*
D03*
Y35569D02*
D03*
Y33029D02*
D03*
Y30489D02*
D03*
Y48269D02*
D03*
Y45729D02*
D03*
Y43189D02*
D03*
Y40649D02*
D03*
Y50809D02*
D03*
X8890Y7629D02*
D03*
Y12709D02*
D03*
X6350Y45729D02*
D03*
Y22869D02*
D03*
X13970Y50809D02*
D03*
Y40649D02*
D03*
Y43189D02*
D03*
Y45729D02*
D03*
Y48269D02*
D03*
Y30489D02*
D03*
Y33029D02*
D03*
Y35569D02*
D03*
Y38109D02*
D03*
Y20329D02*
D03*
Y22869D02*
D03*
Y25409D02*
D03*
Y27949D02*
D03*
Y17789D02*
D03*
Y15249D02*
D03*
Y12709D02*
D03*
Y10169D02*
D03*
Y7629D02*
D03*
X16510Y45729D02*
D03*
Y35569D02*
D03*
Y38109D02*
D03*
Y40649D02*
D03*
Y43189D02*
D03*
Y25409D02*
D03*
Y27949D02*
D03*
Y30489D02*
D03*
Y33029D02*
D03*
Y15249D02*
D03*
Y17789D02*
D03*
Y20329D02*
D03*
Y22869D02*
D03*
Y12709D02*
D03*
Y10169D02*
D03*
Y7629D02*
D03*
D107*
X2350Y57659D02*
D03*
X57650D02*
D03*
X2350Y2359D02*
D03*
X57650D02*
D03*
D108*
X31700Y45509D02*
D03*
X30600Y48809D02*
D03*
Y46609D02*
D03*
Y44409D02*
D03*
X29500Y47709D02*
D03*
Y45509D02*
D03*
X28400Y48809D02*
D03*
Y46609D02*
D03*
Y44409D02*
D03*
X27300Y47709D02*
D03*
Y45509D02*
D03*
X31700Y47709D02*
D03*
M02*
