%FSLAX43Y43*%
%MOMM*%
G71*
G01*
G75*
G04 Layer_Physical_Order=3*
G04 Layer_Color=128*
%ADD10C,0.175*%
%ADD11C,0.300*%
%ADD12C,0.175*%
%ADD13C,0.300*%
%ADD14C,0.180*%
%ADD15C,0.220*%
%ADD16C,0.200*%
%ADD17R,1.000X0.950*%
%ADD18C,0.400*%
%ADD19R,0.400X1.350*%
%ADD20R,1.000X2.250*%
%ADD21R,1.150X1.400*%
%ADD22R,0.300X0.850*%
%ADD23R,0.850X0.300*%
%ADD24R,5.200X5.200*%
%ADD25R,2.600X2.600*%
%ADD26R,0.230X0.480*%
%ADD27R,0.480X0.230*%
%ADD28R,1.050X0.650*%
%ADD29R,1.300X0.600*%
%ADD30R,1.200X1.200*%
%ADD31R,1.200X1.350*%
%ADD32R,0.800X0.650*%
%ADD33R,0.500X0.600*%
%ADD34R,0.950X1.000*%
%ADD35R,0.600X0.900*%
%ADD36R,0.900X0.600*%
%ADD37R,0.650X0.800*%
%ADD38C,0.150*%
%ADD39C,0.500*%
%ADD40R,0.900X0.300*%
%ADD41R,1.800X1.900*%
G04:AMPARAMS|DCode=42|XSize=1.05mm|YSize=1.25mm|CornerRadius=0.525mm|HoleSize=0mm|Usage=FLASHONLY|Rotation=180.000|XOffset=0mm|YOffset=0mm|HoleType=Round|Shape=RoundedRectangle|*
%AMROUNDEDRECTD42*
21,1,1.050,0.200,0,0,180.0*
21,1,0.000,1.250,0,0,180.0*
1,1,1.050,0.000,0.100*
1,1,1.050,0.000,0.100*
1,1,1.050,0.000,-0.100*
1,1,1.050,0.000,-0.100*
%
%ADD42ROUNDEDRECTD42*%
G04:AMPARAMS|DCode=43|XSize=2.1mm|YSize=1.9mm|CornerRadius=0.494mm|HoleSize=0mm|Usage=FLASHONLY|Rotation=180.000|XOffset=0mm|YOffset=0mm|HoleType=Round|Shape=RoundedRectangle|*
%AMROUNDEDRECTD43*
21,1,2.100,0.912,0,0,180.0*
21,1,1.112,1.900,0,0,180.0*
1,1,0.988,-0.556,0.456*
1,1,0.988,0.556,0.456*
1,1,0.988,0.556,-0.456*
1,1,0.988,-0.556,-0.456*
%
%ADD43ROUNDEDRECTD43*%
%ADD44R,1.700X1.700*%
%ADD45C,1.700*%
%ADD46R,1.700X1.700*%
%ADD47O,0.800X1.100*%
%ADD48O,1.100X0.800*%
%ADD49C,1.524*%
%ADD50C,3.600*%
%ADD51C,0.550*%
%ADD52C,0.800*%
%ADD53C,1.016*%
%ADD54C,0.100*%
%ADD55R,12.000X12.000*%
%ADD56O,1.250X1.450*%
%ADD57O,1.425X2.100*%
%ADD58C,1.600*%
%ADD59C,1.250*%
G04:AMPARAMS|DCode=60|XSize=2.174mm|YSize=2.174mm|CornerRadius=0mm|HoleSize=0mm|Usage=FLASHONLY|Rotation=0.000|XOffset=0mm|YOffset=0mm|HoleType=Round|Shape=Relief|Width=0.254mm|Gap=0.254mm|Entries=4|*
%AMTHD60*
7,0,0,2.174,1.666,0.254,45*
%
%ADD60THD60*%
G04:AMPARAMS|DCode=61|XSize=2.524mm|YSize=2.524mm|CornerRadius=0mm|HoleSize=0mm|Usage=FLASHONLY|Rotation=0.000|XOffset=0mm|YOffset=0mm|HoleType=Round|Shape=Relief|Width=0.254mm|Gap=0.254mm|Entries=4|*
%AMTHD61*
7,0,0,2.524,2.016,0.254,45*
%
%ADD61THD61*%
%ADD62C,3.300*%
%ADD63C,0.850*%
%ADD64C,1.000*%
D11*
X20574Y34121D02*
X59817D01*
X10135Y44560D02*
X20574Y34121D01*
X0Y44560D02*
X10135D01*
D53*
X0Y1009D02*
G03*
X1000Y9I1000J0D01*
G01*
X59000D02*
G03*
X60000Y1009I0J1000D01*
G01*
Y59009D02*
G03*
X59000Y60009I-1000J0D01*
G01*
X36000Y61009D02*
G03*
X37000Y60009I1000J0D01*
G01*
X36000Y74009D02*
G03*
X35000Y75009I-1000J0D01*
G01*
X25000D02*
G03*
X24000Y74009I0J-1000D01*
G01*
X23000Y60009D02*
G03*
X24000Y61009I0J1000D01*
G01*
X1000Y60009D02*
G03*
X0Y59009I0J-1000D01*
G01*
X1000Y9D02*
X59000D01*
X60000Y1009D02*
Y59009D01*
X37000Y60009D02*
X59000D01*
X36000Y61009D02*
X36000D01*
Y74009D01*
X25000Y75009D02*
X35000D01*
X24000Y61009D02*
Y74009D01*
X1000Y60009D02*
X23000D01*
X0Y1009D02*
Y59009D01*
D54*
X30028Y16325D02*
D03*
D55*
X30028Y15325D02*
D03*
D56*
X27575Y70384D02*
D03*
X32425D02*
D03*
D57*
X33512Y73384D02*
D03*
X26487D02*
D03*
D58*
X6350Y20329D02*
D03*
Y17789D02*
D03*
Y12709D02*
D03*
Y15249D02*
D03*
Y7629D02*
D03*
Y10169D02*
D03*
X54610Y7629D02*
D03*
Y10169D02*
D03*
Y15249D02*
D03*
Y12709D02*
D03*
Y22869D02*
D03*
Y25409D02*
D03*
Y20329D02*
D03*
Y17789D02*
D03*
Y39633D02*
D03*
Y42173D02*
D03*
Y47253D02*
D03*
Y44713D02*
D03*
Y34553D02*
D03*
Y37093D02*
D03*
Y32013D02*
D03*
Y29473D02*
D03*
Y49793D02*
D03*
Y52333D02*
D03*
X8510Y57509D02*
D03*
X11050D02*
D03*
X13590D02*
D03*
X16510Y48269D02*
D03*
Y50809D02*
D03*
X31700Y4949D02*
D03*
X34240Y7489D02*
D03*
X29160Y4949D02*
D03*
X31700Y7489D02*
D03*
X29160D02*
D03*
X6350Y43189D02*
D03*
Y35569D02*
D03*
Y38109D02*
D03*
Y27949D02*
D03*
Y25409D02*
D03*
Y30489D02*
D03*
Y33029D02*
D03*
X34235Y57509D02*
D03*
X39315D02*
D03*
X31500Y36559D02*
D03*
X39370Y30489D02*
D03*
Y33029D02*
D03*
X16510Y5089D02*
D03*
X13970D02*
D03*
X11430D02*
D03*
X8890D02*
D03*
X44450D02*
D03*
X46990D02*
D03*
X49530D02*
D03*
X52070D02*
D03*
X41910D02*
D03*
Y50809D02*
D03*
Y40649D02*
D03*
Y43189D02*
D03*
Y45729D02*
D03*
Y48269D02*
D03*
Y30489D02*
D03*
Y33029D02*
D03*
Y35569D02*
D03*
Y38109D02*
D03*
Y20329D02*
D03*
Y22869D02*
D03*
Y25409D02*
D03*
Y27949D02*
D03*
Y17789D02*
D03*
Y15249D02*
D03*
Y12709D02*
D03*
Y10169D02*
D03*
Y7629D02*
D03*
X44450D02*
D03*
X46990D02*
D03*
X49530D02*
D03*
X52070D02*
D03*
Y10169D02*
D03*
X49530D02*
D03*
X46990D02*
D03*
X44450D02*
D03*
X52070Y12709D02*
D03*
X49530D02*
D03*
X46990D02*
D03*
X44450D02*
D03*
X52070Y15249D02*
D03*
X49530D02*
D03*
X46990D02*
D03*
X44450D02*
D03*
X52070Y17789D02*
D03*
X49530D02*
D03*
X46990D02*
D03*
X44450D02*
D03*
Y27949D02*
D03*
X46990D02*
D03*
X49530D02*
D03*
X52070D02*
D03*
X44450Y25409D02*
D03*
X46990D02*
D03*
X49530D02*
D03*
X52070D02*
D03*
X44450Y22869D02*
D03*
X46990D02*
D03*
X49530D02*
D03*
X52070D02*
D03*
X44450Y20329D02*
D03*
X46990D02*
D03*
X49530D02*
D03*
X52070D02*
D03*
X44450Y38109D02*
D03*
X46990D02*
D03*
X49530D02*
D03*
X52070D02*
D03*
X44450Y35569D02*
D03*
X46990D02*
D03*
X49530D02*
D03*
X52070D02*
D03*
X44450Y33029D02*
D03*
X46990D02*
D03*
X49530D02*
D03*
X52070D02*
D03*
X44450Y30489D02*
D03*
X46990D02*
D03*
X49530D02*
D03*
X52070D02*
D03*
X44450Y48269D02*
D03*
X46990D02*
D03*
X49530D02*
D03*
X52070D02*
D03*
X44450Y45729D02*
D03*
X46990D02*
D03*
X49530D02*
D03*
X52070D02*
D03*
X44450Y43189D02*
D03*
X46990D02*
D03*
X49530D02*
D03*
X52070D02*
D03*
X44450Y40649D02*
D03*
X46990D02*
D03*
X49530D02*
D03*
X52070D02*
D03*
Y50809D02*
D03*
X49530D02*
D03*
X46990D02*
D03*
X44450D02*
D03*
X3810Y7629D02*
D03*
Y10169D02*
D03*
Y12709D02*
D03*
Y15249D02*
D03*
Y17789D02*
D03*
Y27949D02*
D03*
Y25409D02*
D03*
Y22869D02*
D03*
Y20329D02*
D03*
Y38109D02*
D03*
Y35569D02*
D03*
Y33029D02*
D03*
Y30489D02*
D03*
Y48269D02*
D03*
Y45729D02*
D03*
Y43189D02*
D03*
Y50809D02*
D03*
X6350D02*
D03*
Y48269D02*
D03*
X8890Y10169D02*
D03*
Y15249D02*
D03*
Y17789D02*
D03*
Y27949D02*
D03*
Y25409D02*
D03*
Y22869D02*
D03*
Y20329D02*
D03*
Y38109D02*
D03*
Y35569D02*
D03*
Y33029D02*
D03*
Y30489D02*
D03*
Y48269D02*
D03*
Y45729D02*
D03*
Y43189D02*
D03*
Y40649D02*
D03*
Y50809D02*
D03*
X11430Y7629D02*
D03*
Y10169D02*
D03*
Y12709D02*
D03*
Y15249D02*
D03*
Y17789D02*
D03*
Y27949D02*
D03*
Y25409D02*
D03*
Y22869D02*
D03*
Y20329D02*
D03*
Y38109D02*
D03*
Y35569D02*
D03*
Y33029D02*
D03*
Y30489D02*
D03*
Y48269D02*
D03*
Y45729D02*
D03*
Y43189D02*
D03*
Y40649D02*
D03*
Y50809D02*
D03*
X57150Y7629D02*
D03*
Y10169D02*
D03*
Y12709D02*
D03*
Y15249D02*
D03*
Y17789D02*
D03*
Y27949D02*
D03*
Y25409D02*
D03*
Y22869D02*
D03*
Y20329D02*
D03*
Y38109D02*
D03*
Y35569D02*
D03*
Y33029D02*
D03*
Y30489D02*
D03*
Y48269D02*
D03*
Y45729D02*
D03*
Y43189D02*
D03*
Y40649D02*
D03*
Y50809D02*
D03*
X8890Y7629D02*
D03*
Y12709D02*
D03*
X6350Y45729D02*
D03*
Y22869D02*
D03*
X13970Y50809D02*
D03*
Y40649D02*
D03*
Y43189D02*
D03*
Y45729D02*
D03*
Y48269D02*
D03*
Y30489D02*
D03*
Y33029D02*
D03*
Y35569D02*
D03*
Y38109D02*
D03*
Y20329D02*
D03*
Y22869D02*
D03*
Y25409D02*
D03*
Y27949D02*
D03*
Y17789D02*
D03*
Y15249D02*
D03*
Y12709D02*
D03*
Y10169D02*
D03*
Y7629D02*
D03*
X16510Y45729D02*
D03*
Y35569D02*
D03*
Y38109D02*
D03*
Y40649D02*
D03*
Y43189D02*
D03*
Y25409D02*
D03*
Y27949D02*
D03*
Y30489D02*
D03*
Y33029D02*
D03*
Y15249D02*
D03*
Y17789D02*
D03*
Y20329D02*
D03*
Y22869D02*
D03*
Y12709D02*
D03*
Y10169D02*
D03*
Y7629D02*
D03*
D59*
X50800Y56524D02*
D03*
Y57794D02*
D03*
X45720D02*
D03*
X48260D02*
D03*
X49530D02*
D03*
Y56524D02*
D03*
X48260D02*
D03*
X46990D02*
D03*
X45720D02*
D03*
X37365Y6729D02*
D03*
Y5459D02*
D03*
Y4189D02*
D03*
X38635D02*
D03*
Y5459D02*
D03*
Y6729D02*
D03*
Y7999D02*
D03*
Y2919D02*
D03*
X37365D02*
D03*
D60*
X46990Y57794D02*
D03*
X37365Y7999D02*
D03*
D61*
X34240Y4949D02*
D03*
X6350Y40649D02*
D03*
X36775Y57509D02*
D03*
X16510Y2549D02*
D03*
X13970D02*
D03*
X8890D02*
D03*
X11430D02*
D03*
X52070D02*
D03*
X49530D02*
D03*
X46990D02*
D03*
X44450D02*
D03*
X41910D02*
D03*
X3810Y40649D02*
D03*
D62*
X2350Y57659D02*
D03*
X57650D02*
D03*
X2350Y2359D02*
D03*
X57650D02*
D03*
D63*
X31700Y45509D02*
D03*
X30600Y48809D02*
D03*
Y46609D02*
D03*
Y44409D02*
D03*
X29500Y47709D02*
D03*
Y45509D02*
D03*
X28400Y48809D02*
D03*
Y46609D02*
D03*
Y44409D02*
D03*
X27300Y47709D02*
D03*
Y45509D02*
D03*
X31700Y47709D02*
D03*
X23450Y23309D02*
D03*
X29020Y60802D02*
D03*
X33911Y66120D02*
D03*
X32586Y67064D02*
D03*
X24714Y54512D02*
D03*
X15775Y53689D02*
D03*
X29430Y66447D02*
D03*
X25315Y66720D02*
D03*
X26458Y66747D02*
D03*
X19200Y44309D02*
D03*
X22700Y46509D02*
D03*
X29650Y67339D02*
D03*
X28175Y53101D02*
D03*
X29275Y35454D02*
D03*
X34350Y67284D02*
D03*
X30400Y54644D02*
D03*
X31150D02*
D03*
X29650Y68609D02*
D03*
X31000D02*
D03*
X22860Y45321D02*
D03*
X27878Y38834D02*
D03*
X27648Y52175D02*
D03*
X30000Y51084D02*
D03*
X26075Y49648D02*
D03*
X37000Y44734D02*
D03*
X36562Y45547D02*
D03*
X28700Y42209D02*
D03*
X18046Y36884D02*
D03*
X28950Y54309D02*
D03*
X33075Y50309D02*
D03*
X23550Y48759D02*
D03*
X32675Y39609D02*
D03*
X19766Y42659D02*
D03*
X18525Y41418D02*
D03*
X32512Y51720D02*
D03*
X24926Y46036D02*
D03*
X25850Y43134D02*
D03*
X25350Y41884D02*
D03*
X23975Y42884D02*
D03*
X34381Y41053D02*
D03*
X35450Y47434D02*
D03*
X35700Y46034D02*
D03*
X37236Y47409D02*
D03*
X27975Y39809D02*
D03*
X29850Y41509D02*
D03*
X35250Y48209D02*
D03*
X27520Y68053D02*
D03*
X28181Y68757D02*
D03*
X35489Y35112D02*
D03*
X26539Y23412D02*
D03*
X31178Y22475D02*
D03*
X19625Y38865D02*
D03*
X20875Y39804D02*
D03*
X27100Y26609D02*
D03*
X19425Y28554D02*
D03*
X21400Y11166D02*
D03*
X30510Y28852D02*
D03*
X33266Y26858D02*
D03*
X34076Y25922D02*
D03*
X35000Y26859D02*
D03*
X35336Y32655D02*
D03*
X33101Y27643D02*
D03*
X35516Y28498D02*
D03*
X35476Y29438D02*
D03*
X31652Y28871D02*
D03*
X29854Y29698D02*
D03*
X38264Y13426D02*
D03*
X40106Y12707D02*
D03*
X38160Y17309D02*
D03*
X30200Y21932D02*
D03*
X34295Y37338D02*
D03*
X38250Y40509D02*
D03*
X39370Y36741D02*
D03*
X29093Y31357D02*
D03*
X23557Y27861D02*
D03*
Y29111D02*
D03*
X28800Y28413D02*
D03*
X29300Y26359D02*
D03*
Y24959D02*
D03*
X30700D02*
D03*
Y26359D02*
D03*
X20125Y5284D02*
D03*
X33089Y29438D02*
D03*
X35408Y23799D02*
D03*
X36426Y23507D02*
D03*
X37678Y20775D02*
D03*
X23540Y26550D02*
D03*
D64*
X26747Y61689D02*
D03*
M02*
