M48
;Layer_Color=9474304
;FILE_FORMAT=2:4
INCH,TZ
;TYPE=PLATED
T1F00S00C0.0098
T2F00S00C0.0157
T3F00S00C0.0256
T6F00S00C0.0394
T7F00S00C0.1063
%
T01
X15065Y5286
X15790Y5003
X8996Y4370
X8425Y4396
X7923Y2080
X10640Y2078
X10448Y9217
X9232Y9177
X9268Y10453
X9274Y10969
Y11461
X10059Y11775
X10424Y10969
X10669Y10476
X11535Y10377
Y9826
X12087
Y10377
X12012Y11359
X12462Y11366
X13027Y11590
X13032Y10883
X13097Y10574
X13416Y10206
X12275Y8849
X11890Y8635
X11339Y11186
X11754Y11692
X11454Y12345
X11526Y13958
X10191Y14472
X9837Y13232
X9843Y12936
X9010Y14005
X8527Y13653
X7105Y14521
X7726Y15301
X8219Y15671
X7782Y16795
X7559Y17444
X7293Y16306
X9439Y16883
X10177Y16982
X9980Y16490
X10827Y16153
X11014Y15673
X10975Y15289
X11299Y16618
X11752Y16342
X12047Y17484
X12480Y17917
X12047Y18350
Y19216
X11614Y18783
Y17917
X11181Y18350
Y19216
X10748Y18783
Y17917
X11181Y17484
X9813Y18124
X8937Y18310
X9000Y17843
X9272Y19196
X9754Y19627
X9661Y20072
X10266Y19547
X10885Y20541
X11093Y20906
X11398Y21381
X11968Y21513
X12264
X12800Y20362
X13022Y19807
X11811Y20112
X12480Y18783
X13445Y18675
X12864Y15594
X13502Y14700
X7648Y11242
X6211Y21137
X9730Y21461
X13888Y19285
X13878Y18980
X13957Y18675
X14055Y18123
X14395Y17932
X14567Y17612
X14022Y17129
X13536Y16163
X15059Y15948
X15500Y14465
X13972Y13823
X13912Y12856
X13967Y11590
X13983Y11220
X13780Y10574
X13940Y9370
X14341Y9255
X14834Y8179
X15023Y6815
X14660Y18665
X13327Y25023
Y25660
X13351Y26031
X13524Y26490
X12829Y26403
X12205Y27011
X11673
Y26511
X11587Y26160
X10417Y26278
X9967Y26268
X10835Y26793
X11095Y27070
X11425Y23938
T02
X10530Y24287
T03
X14711Y1149
Y1649
Y2149
Y2649
Y3149
X15211
Y2649
Y2149
Y1649
Y1149
X18000Y22253
Y22753
X18500
X19000
X19500
X20000
Y22253
X19500
X19000
X18500
T06
X16500Y1003
X17500
Y2003
X18500
X19500
X20500
Y1003
X19500
X18500
Y3003
X17500
X16500
Y2003
Y4003
Y5003
Y6003
X17500
Y5003
Y4003
X18500
X19500
Y3003
X20500
X21500
Y4003
Y5003
Y6003
X20500
Y5003
Y4003
X19500Y5003
X18500
Y6003
X19500
X22500
Y5003
Y4003
Y3003
X13480Y2948
Y1948
X12480
X11480
Y2948
X12480
X6500Y3003
Y2003
Y1003
X5500
Y2003
X4500
Y1003
X3500
Y2003
Y3003
X2500
Y4003
Y5003
Y6003
X1500
Y5003
Y4003
Y3003
X3500Y4003
X4500
Y3003
X5500
Y4003
Y5003
X4500
Y6003
X3500
Y5003
X5500Y6003
X6500
Y5003
Y4003
Y7003
X5500
X4500
X3500
X2500
Y8003
X1500
Y7003
Y9003
Y10003
X2500
Y11003
Y12003
Y13003
Y14003
Y15003
Y16003
Y17003
X1500
Y18003
Y19003
Y20003
X2500
Y19003
X3500
Y18003
Y17003
Y16003
Y15003
Y14003
Y13003
Y12003
Y11003
Y10003
Y9003
Y8003
X4500
Y9003
Y10003
Y11003
Y12003
Y13003
Y14003
Y15003
Y16003
Y17003
Y18003
Y19003
Y20003
X3500
X5500
X6500
Y19003
X5500
Y18003
Y17003
Y16003
Y15003
Y14003
Y13003
Y12003
Y11003
Y10003
Y9003
Y8003
X6500
Y9003
Y10003
Y11003
Y12003
Y13003
Y14003
Y15003
Y16003
Y17003
Y18003
X2500
X1500Y16003
Y15003
Y14003
Y13003
Y12003
Y11003
X2500Y9003
X12402Y14393
X15500Y13003
Y12003
X16500
Y13003
Y14003
Y15003
Y16003
Y17003
Y18003
Y19003
Y20003
X17500
Y19003
X18500
X19500
X20500
Y18003
X19500
X18500
X17500
Y17003
X18500
X19500
X20500
Y16003
Y15003
X19500
X18500
X17500
Y14003
X18500
X19500
X20500
Y13003
X19500
X18500
X17500
Y12003
Y11003
X16500
Y10003
Y9003
Y8003
Y7003
X17500
X18500
X19500
X20500
X21500
Y8003
Y9003
Y10003
X20500
Y11003
X19500
X18500
Y10003
X17500
Y9003
X18500
X19500
Y10003
X20500Y9003
Y8003
X19500
X18500
X17500
X18500Y12003
X19500
X20500
X21500Y11603
Y12603
Y13603
Y14603
Y15603
Y16603
Y17603
Y18603
Y19603
Y20603
X20500Y20003
X19500
X18500
Y16003
X17500
X19500
X22500
Y15003
Y14003
Y13003
Y12003
Y11003
Y10003
Y9003
Y8003
Y7003
Y17003
Y18003
Y19003
Y20003
X15478Y22641
X14478
X13478
X5350Y22641
X4350
X3350
T07
X22697Y929
X925
X22697Y22700
X925
M30
